<?xml version="1.0" encoding="UTF-8"?>
<svg xmlns="http://www.w3.org/2000/svg" width="140" height="39.37" viewBox="0 0 140 39.37"><g id="Calque_1"><path d="M0,39.37H2.1c3.08-6.22,9.27-10.26,16.4-10.26s13.3,4.05,16.38,10.26h2.12V.22H0V39.37H0Z" style="fill:#00a3b0; fill-rule:evenodd;"/></g><g id="Calque_3"><g><path d="M82.67,33.53h0c-.17-.25-.4-.45-.68-.57-.29-.12-.66-.19-1.1-.19-.55,0-.98,.09-1.29,.27-.3,.17-.55,.42-.71,.72-.16,.3-.27,.66-.31,1.08-.05,.43-.07,.87-.07,1.31,0,.7,.06,1.26,.19,1.67,.12,.42,.29,.74,.51,.96,.2,.22,.47,.37,.76,.44,.3,.07,.62,.11,.93,.11,.66,0,1.19-.16,1.58-.49,.39-.33,.59-.84,.6-1.55h-1.12c0,.16-.04,.31-.09,.46-.05,.15-.12,.27-.21,.38-.09,.11-.2,.2-.34,.26-.13,.07-.29,.1-.46,.1-.18,0-.36-.02-.53-.08-.16-.05-.29-.16-.4-.31-.11-.15-.19-.37-.25-.64-.06-.27-.09-.63-.09-1.08h3.52v-.54c0-.53-.03-.98-.1-1.36-.07-.38-.18-.7-.35-.96Zm-3.08,2.09h0c0-.43,.03-.79,.1-1.06,.07-.27,.15-.48,.26-.63,.11-.15,.23-.25,.37-.3,.15-.05,.3-.08,.46-.08,.17,0,.34,.02,.51,.06,.16,.04,.29,.14,.4,.28,.11,.14,.19,.35,.25,.62,.06,.27,.09,.64,.09,1.09h-2.44Z" style="fill:#00a3b0;"/><rect x="90.97" y="32.9" width="1.02" height="6.31" style="fill:#00a3b0;"/><path d="M57.18,33.34h0c-.12-.18-.3-.32-.52-.42s-.49-.14-.83-.14c-.4,0-.74,.07-.99,.2-.26,.13-.48,.38-.68,.74h-.05v-.81h-1.08l.04,.66,.02,.66v5h1.02v-3.74c0-.22,.01-.44,.04-.66,.03-.22,.09-.42,.18-.6,.09-.18,.22-.33,.39-.44,.17-.11,.39-.17,.67-.17,.22,0,.4,.03,.54,.09s.26,.15,.34,.26,.14,.24,.17,.39c.03,.16,.05,.32,.05,.47v4.38h1.02v-4.38c0-.28-.02-.57-.07-.84-.04-.23-.13-.46-.26-.66Z" style="fill:#00a3b0;"/><path d="M62.62,33.54h-.04c-.17-.25-.37-.44-.6-.57s-.48-.19-.78-.19c-.51,0-.9,.1-1.18,.31-.28,.2-.49,.48-.62,.79-.13,.33-.21,.69-.24,1.09l-.04,1.19c0,.69,.06,1.25,.17,1.66,.12,.42,.27,.74,.46,.96s.41,.37,.65,.44c.24,.07,.49,.11,.74,.11,.33,0,.61-.07,.84-.22s.43-.36,.6-.66h.03v.75h1.02v-9.02h-1.02v3.35Zm-.02,3.22c0,.29-.05,.58-.12,.87-.07,.26-.18,.47-.34,.63s-.38,.24-.66,.24c-.32,0-.57-.08-.74-.23s-.3-.35-.38-.58c-.09-.24-.13-.49-.14-.75l-.02-.77,.04-1.11c.03-.32,.08-.58,.17-.8,.07-.2,.2-.37,.38-.49,.17-.11,.39-.16,.66-.16s.5,.07,.66,.22c.16,.15,.28,.35,.35,.56,.08,.23,.13,.47,.14,.71l.03,.69-.02,.96h0Z" style="fill:#00a3b0;"/><path d="M51.12,37.71h0s0-3.04,0-3.04c0-.25-.03-.5-.09-.74-.06-.22-.17-.43-.32-.6-.17-.18-.38-.32-.62-.41-.26-.1-.59-.15-1-.15-.67,0-1.18,.14-1.54,.42-.36,.28-.55,.77-.58,1.48h1.1c-.03-.33,.04-.6,.21-.81s.43-.31,.78-.31c.27,0,.48,.05,.63,.16,.14,.1,.25,.24,.32,.41,.07,.17,.1,.35,.11,.56v.62c-.37,0-.74,0-1.12,.03-.37,.02-.72,.1-1.07,.22-.32,.12-.59,.32-.79,.59-.21,.27-.31,.64-.31,1.12,0,.28,.03,.56,.08,.83,.05,.25,.15,.47,.28,.66,.14,.19,.32,.33,.53,.43,.22,.1,.49,.16,.83,.16,.4,0,.72-.08,.97-.24,.25-.16,.45-.43,.61-.79h.03v.91h1.12l-.09-.74-.03-.76Zm-1.09-.4h0c-.07,.32-.18,.56-.3,.74-.11,.16-.26,.28-.43,.36-.16,.06-.32,.09-.48,.09-.34,0-.59-.12-.74-.35-.16-.24-.24-.52-.24-.81,0-.33,.07-.58,.22-.76s.33-.29,.55-.37c.24-.08,.49-.12,.74-.12h.76c.03,.5,0,.91-.07,1.23Z" style="fill:#00a3b0;"/><polygon points="72.52 37.76 72.49 37.76 70.23 30.19 68.39 30.19 68.39 39.21 69.45 39.21 69.45 31.19 69.48 31.19 71.93 39.21 73.01 39.21 75.52 31.19 75.54 31.19 75.54 39.21 76.68 39.21 76.68 30.19 74.8 30.19 72.52 37.76" style="fill:#00a3b0;"/><path d="M88.11,33.54h-.04c-.17-.25-.37-.44-.6-.57s-.48-.19-.78-.19c-.51,0-.9,.1-1.18,.31-.28,.2-.49,.48-.62,.79-.13,.33-.21,.69-.24,1.09l-.04,1.19c0,.69,.06,1.25,.17,1.66,.12,.42,.27,.74,.46,.96s.41,.37,.65,.44c.24,.07,.49,.11,.74,.11,.33,0,.61-.07,.84-.22,.23-.15,.43-.36,.6-.66h.02v.75h1.02v-9.02h-1.02v3.35Zm-.02,3.22c0,.29-.05,.58-.12,.87-.07,.26-.18,.47-.34,.63-.16,.16-.38,.24-.66,.24-.32,0-.57-.08-.74-.23s-.3-.35-.38-.58c-.09-.24-.13-.49-.14-.75l-.02-.77,.04-1.11c.02-.32,.08-.58,.17-.8,.07-.2,.2-.37,.38-.49,.16-.11,.39-.16,.66-.16s.5,.07,.66,.22c.16,.15,.28,.35,.35,.56,.08,.23,.13,.47,.14,.71l.03,.69-.02,.96h0Z" style="fill:#00a3b0;"/><rect x="99.87" y="30.19" width="1.14" height="1.1" style="fill:#00a3b0;"/><path d="M106.79,33.34h0c-.12-.18-.3-.32-.51-.42-.22-.1-.49-.14-.83-.14-.41,0-.74,.07-.99,.2-.26,.13-.48,.38-.68,.74h-.05v-.81h-1.08l.04,.66,.02,.66v5h1.02v-3.74c0-.22,.01-.44,.04-.66,.03-.22,.09-.42,.18-.6,.09-.18,.22-.33,.39-.44,.17-.11,.39-.17,.67-.17,.22,0,.4,.03,.54,.09s.26,.15,.34,.26,.14,.24,.17,.39c.03,.16,.05,.32,.05,.47v4.38h1.02v-4.38c0-.28-.02-.57-.07-.84-.04-.23-.13-.46-.26-.66Z" style="fill:#00a3b0;"/><path d="M112.99,33.53h0c-.17-.25-.4-.45-.68-.57-.29-.12-.66-.19-1.1-.19-.55,0-.98,.09-1.29,.27-.3,.17-.55,.42-.71,.72-.16,.3-.27,.66-.31,1.08-.05,.43-.07,.87-.07,1.31,0,.7,.06,1.26,.19,1.67,.12,.42,.29,.74,.51,.96,.2,.22,.47,.37,.76,.44,.3,.07,.62,.11,.93,.11,.66,0,1.19-.16,1.58-.49,.39-.33,.59-.84,.6-1.55h-1.12c0,.16-.04,.31-.09,.46-.05,.14-.12,.27-.21,.38-.09,.11-.2,.2-.34,.26-.13,.07-.28,.1-.46,.1-.18,0-.36-.02-.53-.08-.16-.05-.29-.16-.4-.31-.11-.16-.19-.37-.25-.64-.06-.27-.09-.63-.09-1.08h3.52v-.54c0-.53-.03-.98-.1-1.36-.07-.38-.18-.7-.35-.96Zm-3.08,2.09h0c0-.43,.03-.79,.1-1.06,.07-.27,.15-.48,.26-.63,.11-.15,.23-.25,.37-.3,.15-.05,.3-.08,.46-.08,.17,0,.34,.02,.51,.06,.16,.04,.29,.14,.4,.28,.11,.14,.19,.35,.25,.62,.06,.27,.09,.64,.09,1.09h-2.44Z" style="fill:#00a3b0;"/><path d="M96.98,37.81h0c-.07,.18-.16,.32-.25,.42s-.2,.17-.31,.21-.19,.06-.25,.06c-.27,0-.48-.05-.65-.15-.17-.1-.3-.26-.4-.48-.1-.22-.17-.5-.21-.86-.04-.43-.06-.87-.06-1.31,0-.43,.03-.78,.09-1.06s.15-.48,.27-.64c.1-.15,.25-.26,.42-.32,.17-.06,.36-.09,.54-.09,.1,0,.21,.02,.3,.06,.11,.04,.21,.11,.29,.21,.09,.1,.16,.24,.21,.41,.05,.17,.08,.39,.07,.64h1.05c.03-.71-.12-1.24-.46-1.61s-.83-.54-1.46-.54c-.55,0-.98,.09-1.29,.27-.3,.17-.55,.42-.71,.73-.16,.3-.27,.66-.31,1.08-.05,.43-.07,.87-.07,1.31,0,.7,.06,1.26,.19,1.67,.12,.42,.29,.74,.51,.96,.2,.22,.47,.37,.76,.44,.3,.07,.62,.11,.93,.11,.17,0,.38-.03,.61-.1,.24-.07,.46-.19,.65-.35,.2-.17,.37-.39,.52-.68s.21-.65,.2-1.09h-1.07c0,.28-.02,.52-.09,.69Z" style="fill:#00a3b0;"/><rect x="99.93" y="32.9" width="1.02" height="6.31" style="fill:#00a3b0;"/><rect x="90.91" y="30.19" width="1.14" height="1.1" style="fill:#00a3b0;"/><path d="M54.03,9.34h0c.4,0,.72-.08,.97-.24,.25-.16,.45-.43,.61-.79h.02v.91h1.12l-.09-.74-.03-.76v-3.04c0-.25-.03-.5-.09-.74-.06-.22-.17-.43-.32-.6-.17-.18-.38-.32-.62-.41-.26-.1-.59-.15-1-.15-.67,0-1.18,.14-1.54,.42s-.55,.77-.58,1.48h1.1c-.03-.33,.03-.6,.2-.81,.17-.21,.43-.31,.78-.31,.27,0,.48,.05,.63,.16,.14,.1,.25,.24,.32,.41,.07,.17,.1,.35,.11,.56v.63c-.37,0-.75,0-1.12,.03-.37,.02-.72,.1-1.07,.22-.32,.12-.59,.32-.79,.59-.21,.27-.31,.64-.31,1.12,0,.28,.03,.56,.08,.83,.05,.25,.15,.47,.28,.66,.14,.19,.32,.33,.53,.43,.22,.1,.49,.16,.82,.16Zm-.48-2.76h0c.15-.17,.33-.29,.55-.37,.24-.08,.49-.12,.74-.12h.76c.03,.49,0,.91-.07,1.22s-.18,.56-.3,.74-.27,.29-.43,.36c-.16,.06-.32,.09-.48,.09-.34,0-.59-.12-.74-.35-.16-.24-.24-.52-.24-.81,0-.33,.07-.59,.22-.76Z" style="fill:#00a3b0;"/><polygon points="48.07 5.09 51.19 5.09 51.19 4.09 48.07 4.09 48.07 1.19 51.37 1.19 51.37 .19 46.92 .19 46.92 9.21 48.07 9.21 48.07 5.09" style="fill:#00a3b0;"/><path d="M67.46,9.11c.28-.15,.52-.38,.67-.66h.04v.76h1.08l-.04-.66-.02-.66V2.9h-1.02V7.1c0,.27-.04,.49-.12,.68-.08,.18-.18,.33-.29,.45-.11,.11-.25,.2-.4,.26-.15,.05-.29,.08-.42,.08-.36,0-.63-.12-.81-.35-.17-.23-.26-.54-.26-.93V2.9h-1.02V7.71c0,.54,.15,.95,.43,1.22s.71,.41,1.25,.41c.32,0,.64-.07,.92-.23Z" style="fill:#00a3b0;"/><path d="M60.09,9.23h0c.3,.07,.62,.11,.93,.11,.17,0,.38-.03,.61-.1s.45-.18,.65-.35,.37-.39,.52-.68c.14-.29,.21-.65,.2-1.09h-1.07c0,.28-.02,.52-.09,.69-.07,.18-.15,.32-.25,.42s-.2,.17-.31,.21c-.11,.04-.19,.06-.25,.06-.26,0-.48-.05-.65-.15-.17-.1-.3-.26-.4-.47-.1-.22-.17-.5-.21-.86-.04-.43-.06-.87-.06-1.31,0-.43,.03-.79,.09-1.06s.15-.48,.27-.64c.1-.15,.25-.26,.42-.32,.17-.06,.36-.09,.54-.09,.1,0,.2,.02,.3,.06,.11,.04,.21,.11,.29,.21,.09,.1,.16,.24,.21,.41,.05,.17,.08,.39,.07,.64h1.05c.03-.71-.12-1.24-.47-1.61s-.83-.54-1.46-.54c-.55,0-.98,.09-1.29,.27-.3,.17-.55,.42-.71,.73-.16,.3-.27,.66-.31,1.07-.05,.43-.07,.87-.07,1.31,0,.7,.06,1.26,.19,1.67,.12,.42,.29,.74,.51,.96,.2,.22,.47,.37,.76,.44Z" style="fill:#00a3b0;"/><rect x="70.99" y=".19" width="1.02" height="9.03" style="fill:#00a3b0;"/><path d="M109.16,7.11h0s-1.07,0-1.07,0c0,.28-.02,.52-.09,.69-.07,.18-.16,.32-.25,.42s-.2,.17-.31,.21c-.11,.04-.19,.06-.25,.06-.27,0-.48-.05-.65-.15-.17-.1-.3-.26-.4-.48s-.17-.5-.21-.86c-.04-.43-.06-.87-.06-1.31,0-.43,.03-.79,.09-1.06,.06-.27,.15-.48,.27-.64,.1-.15,.25-.26,.42-.32,.17-.06,.36-.09,.54-.09,.1,0,.21,.02,.3,.06,.1,.04,.2,.11,.28,.21,.09,.1,.16,.24,.21,.41,.05,.17,.08,.39,.07,.64h1.05c.03-.71-.12-1.24-.46-1.61-.34-.36-.83-.54-1.46-.54-.55,0-.98,.09-1.29,.27-.3,.17-.55,.42-.71,.73-.17,.34-.28,.7-.31,1.08-.05,.43-.07,.87-.07,1.31,0,.7,.06,1.26,.19,1.67s.29,.74,.51,.96c.2,.22,.47,.37,.76,.44,.3,.07,.62,.11,.93,.11,.17,0,.38-.03,.61-.1,.24-.07,.46-.19,.65-.35,.2-.17,.37-.39,.52-.68s.21-.65,.2-1.09Z" style="fill:#00a3b0;"/><rect x="110.96" y="2.9" width="1.02" height="6.31" style="fill:#00a3b0;"/><path d="M98.06,8.29c.11,.21,.26,.4,.45,.56,.22,.18,.47,.32,.74,.4h0c.3,.1,.67,.15,1.11,.15,.36,0,.71-.04,1.06-.13,.32-.08,.62-.22,.88-.42,.26-.2,.47-.47,.61-.77,.15-.32,.23-.72,.23-1.19s-.1-.87-.3-1.19c-.2-.32-.45-.59-.74-.82-.3-.22-.62-.42-.97-.59l-.97-.52c-.3-.18-.55-.38-.74-.6-.2-.22-.3-.5-.3-.83,0-.24,.04-.45,.12-.62,.07-.16,.18-.3,.32-.41,.13-.1,.28-.18,.44-.23,.16-.05,.33-.07,.5-.07,.54,0,.9,.15,1.1,.45s.29,.7,.28,1.19h1.19c.03-.92-.17-1.59-.6-2.01-.43-.42-1.06-.63-1.88-.63-.37,0-.72,.05-1.04,.16-.31,.1-.59,.26-.84,.47-.24,.21-.43,.47-.55,.77-.13,.3-.2,.66-.2,1.06,0,.45,.1,.83,.3,1.13,.2,.31,.45,.57,.74,.79,.3,.23,.63,.42,.97,.59l.97,.53c.28,.17,.53,.37,.74,.61,.2,.23,.31,.53,.3,.84,0,.27-.04,.49-.12,.68-.08,.19-.19,.34-.34,.46-.15,.12-.32,.21-.51,.25-.21,.05-.42,.08-.63,.07-.18,0-.36-.03-.54-.08-.18-.05-.34-.15-.48-.27-.15-.14-.27-.3-.35-.49-.09-.2-.13-.46-.13-.77v-.26h-1.13c0,.14,0,.31,0,.51,0,.2,.04,.41,.08,.62,.05,.22,.12,.43,.23,.63Z" style="fill:#00a3b0;"/><polygon points="77.84 11.6 78.89 11.6 81.73 2.9 80.63 2.9 79.13 8.04 79.1 8.04 77.6 2.9 76.42 2.9 78.54 9.21 77.84 11.6" style="fill:#00a3b0;"/><path d="M86,8.79h0c.22,.23,.47,.37,.76,.44,.3,.07,.62,.11,.93,.11,.31,0,.63-.03,.93-.11,.29-.07,.55-.23,.76-.44,.21-.22,.39-.55,.51-.96,.12-.42,.19-.98,.19-1.68,0-.46-.02-.89-.07-1.31-.05-.41-.15-.77-.31-1.08-.16-.31-.41-.56-.71-.72-.31-.18-.74-.27-1.29-.27s-.98,.09-1.29,.27c-.3,.17-.55,.42-.71,.72-.17,.34-.28,.7-.31,1.08-.05,.43-.07,.87-.07,1.31,0,.7,.06,1.26,.19,1.68,.12,.42,.29,.74,.51,.96Zm.46-4.13h0c.06-.27,.15-.48,.27-.64,.1-.15,.25-.26,.42-.32,.17-.06,.36-.09,.54-.09,.18,0,.37,.03,.54,.09,.16,.06,.3,.17,.42,.32,.12,.15,.21,.37,.27,.64s.09,.62,.09,1.06l-.06,1.31c-.04,.35-.1,.64-.21,.86-.1,.22-.23,.38-.4,.48-.17,.1-.39,.15-.65,.15s-.48-.05-.65-.15c-.17-.1-.3-.26-.4-.48-.1-.22-.17-.5-.21-.86-.04-.43-.06-.87-.06-1.31,0-.43,.03-.78,.09-1.06Z" style="fill:#00a3b0;"/><path d="M73.88,8.16c0,.37,.11,.65,.34,.84s.58,.29,1.07,.29c.17,0,.34-.01,.5-.04l.5-.06v-.79l-.28,.04h-.17c-.23,.01-.41-.02-.54-.08-.11-.04-.21-.12-.28-.22-.06-.09-.09-.18-.1-.29v-.31s-.01-3.86-.01-3.86h1.36v-.78h-1.36V1.22l-1.02,.46v1.21h-1.03v.78h1.03v4.49Z" style="fill:#00a3b0;"/><path d="M94.15,2.9h-1.26V1.83c0-.12,.01-.25,.04-.36s.09-.22,.18-.31c.11-.1,.24-.16,.39-.19,.16-.04,.39-.05,.66-.04V.19c-.07-.02-.14-.03-.22-.03h-.27c-.22,0-.44,.01-.66,.05-.21,.03-.4,.11-.58,.22-.17,.12-.31,.28-.4,.47-.1,.2-.16,.46-.16,.78v1.22h-.97v.78h.97v5.54h1.02V3.67h1.27v-.78Z" style="fill:#00a3b0;"/><path d="M136.42,3.53h0c-.17-.25-.4-.45-.68-.57-.29-.12-.66-.19-1.1-.19-.55,0-.98,.09-1.29,.27-.3,.17-.55,.42-.71,.72-.16,.3-.27,.66-.31,1.08-.05,.43-.07,.87-.07,1.31,0,.7,.06,1.26,.19,1.68,.12,.42,.29,.74,.51,.96,.2,.22,.47,.37,.76,.44,.3,.07,.62,.11,.93,.11,.66,0,1.19-.16,1.58-.49s.59-.84,.6-1.55h-1.12c0,.16-.04,.31-.09,.46-.05,.15-.12,.27-.21,.38-.09,.11-.2,.2-.33,.26-.13,.07-.29,.1-.46,.1-.18,0-.36-.02-.53-.08-.16-.05-.29-.16-.4-.31-.11-.15-.19-.37-.25-.64-.06-.28-.09-.63-.09-1.08h3.52v-.54c0-.52-.03-.98-.1-1.36-.07-.38-.18-.7-.35-.96Zm-3.08,2.08h0c0-.43,.03-.79,.1-1.06,.07-.27,.15-.48,.26-.63,.11-.15,.23-.25,.37-.3,.15-.05,.3-.08,.46-.08,.17,0,.34,.02,.51,.06,.16,.04,.29,.14,.4,.28,.11,.15,.19,.35,.25,.62,.06,.27,.09,.64,.09,1.09h-2.44Z" style="fill:#00a3b0;"/><rect x="110.9" y=".19" width="1.14" height="1.1" style="fill:#00a3b0;"/><polygon points="138.72 7.91 138.08 10.8 138.87 10.8 140 7.91 138.72 7.91" style="fill:#00a3b0;"/><path d="M129.37,7.81h0c-.07,.18-.16,.32-.25,.42s-.2,.17-.31,.21c-.11,.04-.19,.06-.25,.06-.27,0-.48-.05-.65-.15-.17-.1-.3-.26-.4-.48s-.17-.5-.21-.86c-.04-.43-.06-.87-.06-1.31,0-.43,.03-.79,.09-1.06,.06-.27,.15-.48,.27-.64,.1-.15,.25-.26,.42-.32,.17-.06,.36-.09,.54-.09,.1,0,.21,.02,.3,.06,.11,.04,.21,.11,.28,.21,.09,.1,.16,.24,.21,.41,.05,.17,.08,.39,.07,.64h1.05c.03-.71-.12-1.24-.46-1.61-.34-.36-.83-.54-1.46-.54-.55,0-.98,.09-1.29,.27-.3,.17-.55,.42-.71,.72-.16,.3-.27,.66-.31,1.08-.05,.43-.07,.87-.07,1.31,0,.7,.06,1.26,.19,1.67s.29,.74,.51,.96c.2,.22,.47,.37,.76,.44,.3,.07,.62,.11,.93,.11,.17,0,.38-.03,.61-.1,.24-.07,.46-.19,.65-.35,.2-.17,.37-.39,.52-.68,.14-.29,.21-.65,.2-1.09h-1.07c0,.28-.02,.51-.09,.69Z" style="fill:#00a3b0;"/><path d="M71.65,17.9h0s.04,.66,.04,.66l.02,.66v5h1.02v-3.74c0-.22,.01-.44,.04-.66,.03-.21,.09-.41,.18-.6,.09-.18,.22-.33,.39-.44,.16-.11,.39-.17,.67-.17,.21,0,.39,.03,.54,.09,.14,.05,.25,.15,.34,.26,.08,.11,.14,.24,.17,.39,.03,.16,.05,.32,.05,.47v4.38h1.02v-4.38c0-.28-.02-.57-.07-.84-.04-.23-.13-.46-.26-.66-.12-.18-.3-.32-.52-.42-.22-.1-.49-.14-.82-.14-.41,0-.74,.07-.99,.2s-.48,.38-.68,.74h-.05v-.81h-1.08Z" style="fill:#00a3b0;"/><path d="M62.53,22.81h0c-.07,.18-.15,.32-.25,.42s-.2,.17-.31,.21c-.11,.04-.19,.06-.25,.06-.26,0-.48-.05-.65-.15-.17-.1-.3-.26-.4-.48s-.17-.5-.21-.86c-.04-.43-.06-.87-.06-1.31,0-.43,.03-.79,.09-1.06s.15-.48,.27-.64c.1-.15,.25-.26,.42-.32,.17-.06,.36-.09,.54-.09,.1,0,.21,.02,.3,.06,.11,.04,.21,.11,.29,.21,.09,.1,.16,.24,.21,.41s.08,.39,.07,.64h1.05c.03-.71-.12-1.24-.47-1.61-.34-.36-.83-.54-1.46-.54-.55,0-.98,.09-1.29,.27-.3,.17-.55,.42-.71,.72-.16,.3-.27,.66-.31,1.08-.05,.43-.07,.87-.07,1.31,0,.7,.06,1.26,.19,1.67,.12,.42,.29,.74,.51,.96,.2,.22,.47,.37,.76,.44,.3,.07,.62,.11,.93,.11,.17,0,.38-.03,.61-.1,.24-.07,.46-.19,.65-.35,.2-.17,.37-.39,.52-.68,.14-.29,.21-.65,.2-1.09h-1.07c0,.28-.02,.52-.09,.69Z" style="fill:#00a3b0;"/><path d="M80.12,24.34c.31,0,.62-.03,.93-.11,.29-.07,.55-.23,.76-.44,.22-.23,.39-.55,.51-.96,.12-.42,.19-.97,.19-1.67,0-.44-.02-.87-.07-1.31-.05-.41-.15-.77-.31-1.08-.16-.31-.41-.56-.71-.72-.31-.18-.74-.27-1.29-.27s-.98,.09-1.29,.27c-.3,.17-.55,.42-.71,.72-.16,.3-.27,.66-.31,1.08-.05,.43-.07,.87-.07,1.31,0,.7,.06,1.26,.19,1.67,.12,.42,.29,.74,.51,.96,.2,.22,.47,.37,.76,.44,.3,.07,.62,.11,.93,.11Zm-1.26-2.32h0c-.04-.43-.06-.87-.06-1.31,0-.43,.03-.78,.09-1.06,.06-.27,.15-.48,.27-.64,.1-.15,.25-.26,.42-.32,.17-.06,.36-.09,.54-.09,.18,0,.37,.03,.54,.09,.16,.06,.3,.16,.42,.32,.12,.15,.21,.37,.27,.64,.06,.27,.09,.62,.09,1.06l-.06,1.31c-.04,.35-.11,.64-.21,.86s-.23,.38-.4,.48c-.17,.1-.39,.15-.65,.15s-.48-.05-.65-.15c-.17-.1-.3-.26-.4-.48-.1-.22-.17-.5-.2-.86Z" style="fill:#00a3b0;"/><polygon points="99.9 26.6 100.95 26.6 103.79 17.9 102.69 17.9 101.19 23.04 101.16 23.04 99.66 17.9 98.48 17.9 100.6 24.21 99.9 26.6" style="fill:#00a3b0;"/><rect x="84.09" y="15.19" width="1.02" height="9.03" style="fill:#00a3b0;"/><polygon points="46.18 16.19 48.54 16.19 48.54 24.21 49.68 24.21 49.68 16.19 52.03 16.19 52.03 15.19 46.18 15.19 46.18 16.19" style="fill:#00a3b0;"/><polygon points="80.12 24.34 80.12 24.34 80.12 24.34 80.12 24.34" style="fill:#00a3b0;"/><path d="M95.09,26.6h0c.32,0,.63-.02,.94-.07,.26-.04,.5-.13,.73-.27,.2-.13,.36-.31,.47-.54s.17-.52,.17-.87v-6.95h-1.02v.77h-.03c-.14-.31-.34-.53-.59-.68s-.54-.22-.88-.22c-.18,0-.35,.03-.52,.08-.22,.05-.44,.18-.65,.38s-.4,.51-.55,.92c-.16,.41-.24,.98-.24,1.71,0,.44,.03,.88,.08,1.31,.04,.37,.14,.73,.3,1.06,.15,.3,.35,.54,.62,.71,.27,.18,.61,.26,1.03,.26,.28,0,.55-.07,.79-.2,.25-.13,.45-.33,.58-.57h.04v1.31c0,.32-.09,.58-.28,.78-.19,.2-.46,.3-.81,.3-.28,0-.51-.08-.68-.24-.17-.16-.26-.38-.27-.68h-1.14c-.02,.29,.01,.54,.11,.76,.09,.21,.24,.39,.42,.52,.19,.14,.4,.24,.62,.31,.24,.07,.5,.1,.75,.1Zm1.18-4.07h0c-.07,.23-.19,.43-.35,.6-.16,.16-.4,.24-.7,.24-.18,0-.35-.03-.51-.11-.15-.07-.28-.2-.38-.39-.11-.19-.19-.44-.24-.77-.05-.32-.08-.74-.08-1.25l.02-.7c.01-.25,.06-.5,.14-.73,.07-.22,.19-.42,.35-.58,.16-.16,.39-.23,.68-.23,.32,0,.57,.08,.73,.24,.17,.16,.28,.37,.35,.61,.07,.24,.11,.5,.12,.78v.77s0,.73,0,.73c0,.26-.05,.52-.12,.77Z" style="fill:#00a3b0;"/><path d="M68.68,18.99c.09,.12,.15,.27,.18,.42,.03,.16,.05,.34,.05,.53v4.27h1.02v-4.47c0-.72-.14-1.22-.43-1.52-.28-.3-.7-.44-1.23-.44-.41,0-.75,.07-1.01,.19-.26,.13-.49,.38-.7,.74h-.05v-3.52h-1.02v9.02h1.02v-3.71c0-.25,.02-.5,.06-.74,.03-.21,.1-.41,.2-.6,.09-.17,.23-.31,.39-.4,.17-.1,.38-.14,.63-.14,.19,0,.37,.03,.54,.1,.14,.07,.26,.16,.35,.28h0Z" style="fill:#00a3b0;"/><path d="M124.02,3.34h0c-.12-.18-.3-.32-.52-.42s-.49-.14-.83-.14c-.4,0-.74,.07-.99,.2s-.48,.38-.68,.74h-.05v-.81h-1.08l.04,.66,.02,.66v5h1.02v-3.74c0-.22,.01-.44,.04-.66,.03-.22,.09-.42,.18-.6,.09-.18,.22-.33,.38-.44,.17-.11,.39-.17,.67-.17,.21,0,.39,.03,.54,.09s.26,.15,.34,.26,.14,.24,.17,.39c.03,.16,.05,.32,.05,.47v4.38h1.02V4.84c0-.28-.02-.57-.07-.84-.04-.23-.13-.46-.26-.66Z" style="fill:#00a3b0;"/><path d="M117.81,3.53h0c-.17-.25-.4-.45-.68-.57-.29-.12-.66-.19-1.1-.19-.55,0-.98,.09-1.29,.27-.3,.17-.55,.42-.71,.72-.16,.3-.27,.66-.31,1.08-.05,.43-.07,.87-.07,1.31,0,.7,.06,1.26,.19,1.68,.12,.42,.29,.74,.51,.96,.2,.22,.47,.37,.76,.44,.3,.07,.62,.11,.93,.11,.66,0,1.19-.16,1.58-.49s.59-.84,.6-1.55h-1.12c0,.16-.04,.31-.09,.46-.05,.15-.12,.27-.21,.38-.09,.11-.2,.2-.34,.26-.13,.07-.28,.1-.46,.1-.18,0-.36-.02-.53-.08-.16-.05-.29-.16-.4-.31-.11-.15-.19-.37-.25-.64-.06-.28-.09-.63-.09-1.08h3.52v-.54c0-.52-.03-.98-.1-1.36-.07-.38-.18-.7-.35-.96Zm-3.08,2.08h0c0-.43,.03-.79,.1-1.06,.07-.27,.15-.48,.26-.63,.11-.15,.23-.25,.37-.3,.15-.05,.3-.08,.46-.08,.17,0,.34,.02,.51,.06,.16,.04,.29,.14,.4,.28,.11,.15,.19,.35,.25,.62,.06,.27,.09,.64,.09,1.09h-2.44Z" style="fill:#00a3b0;"/><path d="M91.46,21.15h0c0-.44-.02-.87-.07-1.31-.05-.41-.15-.77-.31-1.08-.16-.31-.41-.56-.71-.72-.31-.18-.74-.27-1.29-.27s-.98,.09-1.29,.27c-.3,.17-.55,.42-.71,.72-.16,.3-.27,.66-.31,1.08-.05,.43-.07,.87-.07,1.31,0,.7,.06,1.26,.19,1.67,.12,.42,.29,.74,.51,.96,.2,.22,.47,.37,.76,.44,.3,.07,.62,.11,.93,.11,.31,0,.63-.03,.93-.11,.29-.07,.55-.23,.76-.44,.22-.23,.39-.55,.51-.96s.19-.97,.19-1.67Zm-1.12,.87h0c-.04,.35-.1,.64-.2,.86-.1,.22-.23,.38-.4,.48-.17,.1-.39,.15-.65,.15s-.48-.05-.65-.15c-.17-.1-.3-.26-.4-.48-.1-.22-.17-.5-.21-.86-.04-.43-.06-.87-.06-1.31,0-.43,.03-.78,.09-1.06,.06-.27,.15-.48,.27-.64,.1-.15,.25-.26,.42-.32,.17-.06,.36-.09,.54-.09,.18,0,.37,.03,.54,.09,.16,.06,.3,.16,.42,.32,.12,.15,.21,.37,.27,.64,.06,.27,.09,.62,.09,1.06l-.06,1.31Z" style="fill:#00a3b0;"/><path d="M57.17,18.53h0c-.17-.25-.4-.45-.68-.57-.29-.12-.66-.19-1.1-.19-.55,0-.98,.09-1.29,.27-.3,.17-.55,.42-.71,.72-.16,.3-.27,.66-.31,1.08-.05,.43-.07,.87-.07,1.31,0,.7,.06,1.26,.19,1.68,.12,.42,.29,.74,.51,.96,.2,.22,.47,.37,.76,.44,.3,.07,.62,.11,.93,.11,.66,0,1.19-.16,1.58-.49s.59-.84,.6-1.55h-1.12c0,.16-.04,.31-.09,.46-.05,.15-.12,.27-.21,.38-.09,.11-.2,.2-.33,.26-.13,.07-.29,.1-.46,.1-.18,0-.36-.02-.53-.08-.16-.05-.29-.16-.4-.31-.11-.15-.19-.37-.25-.64-.06-.28-.09-.63-.09-1.08h3.52v-.54c0-.52-.03-.98-.1-1.36-.07-.38-.18-.7-.35-.96Zm-3.08,2.09h0c0-.43,.03-.79,.1-1.06,.07-.27,.15-.48,.26-.63,.11-.15,.23-.25,.37-.3,.15-.05,.3-.08,.46-.08,.17,0,.34,.02,.51,.06,.16,.04,.29,.14,.4,.28,.11,.15,.19,.35,.25,.62,.06,.27,.09,.64,.09,1.09h-2.44Z" style="fill:#00a3b0;"/></g></g></svg>